<svg version="1.2" xmlns="http://www.w3.org/2000/svg" viewBox="0 0 852 488" width="852" height="488">
	<title>talk-decor-pc-2-svg</title>
	<style>
		.s0 { fill: #5d3bee } 
	</style>
	<g id="Layer" style="opacity: .1">
		<path id="Layer" class="s0" d="m479.6 29.1c-13.8-14.2-13.8-37.3 0-51.6l35.6-37c13.7-14.2 36-14.3 49.8 0 13.7 14.3 13.7 37.4 0 51.6l-35.7 37c-13.7 14.3-36 14.3-49.7 0z"/>
		<path id="Layer" class="s0" d="m233.3 290c-13.8-14.3-13.8-37.4-0.1-51.6l176-182.6c13.7-14.3 36-14.3 49.8 0 13.7 14.2 13.7 37.3 0 51.6l-176 182.6c-13.7 14.2-36 14.2-49.7 0z"/>
		<path id="Layer" class="s0" d="m149.5 550.2c-13.8-14.2-13.8-37.4 0-51.6l518-537.6c13.8-14.3 36-14.3 49.8 0 13.7 14.2 13.7 37.4 0 51.6l-518.1 537.6c-13.7 14.3-36 14.3-49.7 0z"/>
		<path id="Layer" class="s0" d="m491.7 358.6c-13.8-14.3-13.8-37.4 0-51.7l161.9-168c13.8-14.3 36.1-14.3 49.8 0 13.7 14.2 13.7 37.3 0 51.6l-162 168.1c-13.7 14.2-36 14.2-49.7 0z"/>
	</g>
</svg>